<svg width="1440" height="3529" viewBox="0 0 1440 3529" fill="none" xmlns="http://www.w3.org/2000/svg">
<g clip-path="url(#clip0_229_10)">
<rect width="1440" height="3529" fill="#04032C"/>
<g clip-path="url(#clip1_229_10)">
<rect width="1452" height="1347" transform="translate(-12 2046)" fill="#0D0E13"/>
<ellipse cx="105.352" cy="3132.88" rx="0.452189" ry="0.383456" fill="#C4C4C4"/>
<ellipse cx="66.916" cy="3222.34" rx="0.904378" ry="0.767878" fill="#C4C4C4"/>
<ellipse cx="135.196" cy="2997.74" rx="0.452189" ry="0.383456" fill="#C4C4C4"/>
<ellipse cx="162.328" cy="2844.93" rx="0.452189" ry="0.383456" fill="#C4C4C4"/>
<ellipse cx="123.892" cy="3249.98" rx="0.904378" ry="0.767878" fill="#C4C4C4"/>
<ellipse cx="28.9321" cy="2990.44" rx="0.904378" ry="0.767878" fill="#C4C4C4"/>
<ellipse cx="11.7489" cy="3152.46" rx="0.904378" ry="0.767878" fill="#C4C4C4"/>
<ellipse cx="267.236" cy="3024.61" rx="0.452189" ry="0.383456" fill="#C4C4C4"/>
<ellipse cx="18.9841" cy="3289.15" rx="0.904378" ry="0.767878" fill="#C4C4C4"/>
<ellipse cx="63.2984" cy="3064.93" rx="0.904378" ry="0.767878" fill="#C4C4C4"/>
<ellipse cx="25.3145" cy="3260.74" rx="0.904378" ry="0.767878" fill="#C4C4C4"/>
<ellipse cx="317.881" cy="2923.25" rx="0.452189" ry="0.383456" fill="#C4C4C4"/>
<ellipse cx="112.587" cy="2934" rx="0.452189" ry="0.383456" fill="#C4C4C4"/>
<ellipse cx="269.949" cy="2996.2" rx="0.452189" ry="0.383456" fill="#C4C4C4"/>
<ellipse cx="164.137" cy="2905.59" rx="0.452189" ry="0.383456" fill="#C4C4C4"/>
<ellipse cx="186.746" cy="2961.65" rx="0.452189" ry="0.383456" fill="#C4C4C4"/>
<ellipse cx="1057.21" cy="3030.37" rx="0.904378" ry="0.767878" fill="#C4C4C4"/>
<ellipse cx="1048.17" cy="3000.42" rx="0.904378" ry="0.767878" fill="#C4C4C4"/>
<ellipse cx="278.54" cy="2906.74" rx="0.904378" ry="0.767878" fill="#C4C4C4"/>
<ellipse cx="699.076" cy="2744.72" rx="0.904378" ry="0.767878" fill="#C4C4C4"/>
<ellipse cx="309.289" cy="2983.53" rx="0.904378" ry="0.767878" fill="#C4C4C4"/>
<ellipse cx="280.349" cy="2970.48" rx="0.904378" ry="0.767878" fill="#C4C4C4"/>
<ellipse cx="789.514" cy="2714.77" rx="0.904378" ry="0.767878" fill="#C4C4C4"/>
<ellipse cx="193.529" cy="2955.89" rx="0.904378" ry="0.767878" fill="#C4C4C4"/>
<ellipse cx="627.63" cy="2872.96" rx="0.904378" ry="0.767878" fill="#C4C4C4"/>
<ellipse cx="1112.83" cy="3145.17" rx="0.452189" ry="0.383456" fill="#C4C4C4"/>
<ellipse cx="713.094" cy="2721.3" rx="0.452189" ry="0.383456" fill="#C4C4C4"/>
<ellipse cx="807.149" cy="2752.78" rx="0.452189" ry="0.383456" fill="#C4C4C4"/>
<ellipse cx="1149.91" cy="2746.64" rx="0.452189" ry="0.383456" fill="#C4C4C4"/>
<ellipse cx="173.18" cy="3086.04" rx="0.452189" ry="0.383456" fill="#C4C4C4"/>
<ellipse cx="1106.5" cy="2983.15" rx="0.452189" ry="0.383456" fill="#C4C4C4"/>
<ellipse cx="601.855" cy="2805" rx="0.452189" ry="0.383456" fill="#C4C4C4"/>
<ellipse cx="1108.31" cy="3115.99" rx="0.452189" ry="0.383456" fill="#C4C4C4"/>
<ellipse cx="647.979" cy="2775.82" rx="0.452189" ry="0.383456" fill="#C4C4C4"/>
<ellipse cx="641.648" cy="2725.14" rx="0.452189" ry="0.383456" fill="#C4C4C4"/>
<ellipse cx="373.5" cy="3034.98" rx="0.904378" ry="0.767878" fill="#C4C4C4"/>
<ellipse cx="269.949" cy="3118.29" rx="0.452189" ry="0.383456" fill="#C4C4C4"/>
<ellipse cx="612.708" cy="2728.98" rx="0.452189" ry="0.383456" fill="#C4C4C4"/>
<ellipse cx="583.768" cy="2715.92" rx="0.452189" ry="0.383456" fill="#C4C4C4"/>
<ellipse cx="391.135" cy="2746.64" rx="0.452189" ry="0.383456" fill="#C4C4C4"/>
<ellipse cx="382.092" cy="2716.69" rx="0.452189" ry="0.383456" fill="#C4C4C4"/>
<ellipse cx="298.889" cy="2731.28" rx="0.452189" ry="0.383456" fill="#C4C4C4"/>
<ellipse cx="378.474" cy="2741.26" rx="0.452189" ry="0.383456" fill="#C4C4C4"/>
<ellipse cx="1278.78" cy="2723.22" rx="0.904378" ry="0.767878" fill="#C4C4C4"/>
<ellipse cx="1098.36" cy="2943.98" rx="0.452189" ry="0.383456" fill="#C4C4C4"/>
<ellipse cx="211.617" cy="2138.87" rx="0.904378" ry="0.767878" fill="#C4C4C4"/>
<ellipse cx="202.573" cy="2108.92" rx="0.904378" ry="0.767878" fill="#C4C4C4"/>
<ellipse cx="149.666" cy="2295.9" rx="0.452189" ry="0.383456" fill="#C4C4C4"/>
<ellipse cx="255.479" cy="2325.07" rx="0.452189" ry="0.383456" fill="#C4C4C4"/>
<ellipse cx="333.255" cy="2305.11" rx="0.452189" ry="0.383456" fill="#C4C4C4"/>
<ellipse cx="284.871" cy="2353.1" rx="0.904378" ry="0.767878" fill="#C4C4C4"/>
<ellipse cx="212.069" cy="2318.16" rx="0.452189" ry="0.383456" fill="#C4C4C4"/>
<ellipse cx="260.905" cy="2091.64" rx="0.452189" ry="0.383456" fill="#C4C4C4"/>
<ellipse cx="262.714" cy="2224.48" rx="0.452189" ry="0.383456" fill="#C4C4C4"/>
<ellipse cx="151.475" cy="2199.91" rx="0.452189" ry="0.383456" fill="#C4C4C4"/>
<ellipse cx="145.144" cy="2149.23" rx="0.452189" ry="0.383456" fill="#C4C4C4"/>
<ellipse cx="145.144" cy="2050.94" rx="0.452189" ry="0.383456" fill="#C4C4C4"/>
<ellipse cx="252.766" cy="2052.48" rx="0.452189" ry="0.383456" fill="#C4C4C4"/>
<ellipse cx="1280.14" cy="2888.7" rx="0.452189" ry="0.383456" fill="#C4C4C4"/>
<ellipse cx="1163.02" cy="2801.54" rx="0.904378" ry="0.767878" fill="#C4C4C4"/>
<ellipse cx="317.881" cy="2855.68" rx="0.452189" ry="0.383456" fill="#C4C4C4"/>
<ellipse cx="353.604" cy="2840.71" rx="0.904378" ry="0.767878" fill="#C4C4C4"/>
<ellipse cx="324.211" cy="2827.27" rx="0.452189" ry="0.383456" fill="#C4C4C4"/>
<ellipse cx="506.443" cy="2822.28" rx="0.904378" ry="0.767878" fill="#C4C4C4"/>
<ellipse cx="605.925" cy="2751.63" rx="0.904378" ry="0.767878" fill="#C4C4C4"/>
<ellipse cx="143.788" cy="2714.01" rx="0.904378" ry="0.767878" fill="#C4C4C4"/>
<ellipse cx="45.2109" cy="2869.12" rx="0.904378" ry="0.767878" fill="#C4C4C4"/>
<ellipse cx="80.4817" cy="2853.76" rx="0.904378" ry="0.767878" fill="#C4C4C4"/>
<ellipse cx="1419.41" cy="3285.69" rx="0.452189" ry="0.383456" fill="#C4C4C4"/>
<ellipse cx="1396.8" cy="3221.96" rx="0.452189" ry="0.383456" fill="#C4C4C4"/>
<ellipse cx="121.179" cy="2379.98" rx="0.904378" ry="0.767878" fill="#C4C4C4"/>
<ellipse cx="112.135" cy="2350.03" rx="0.904378" ry="0.767878" fill="#C4C4C4"/>
<ellipse cx="110.778" cy="2644.51" rx="0.452189" ry="0.383456" fill="#C4C4C4"/>
<ellipse cx="188.555" cy="2711.32" rx="0.452189" ry="0.383456" fill="#C4C4C4"/>
<ellipse cx="294.367" cy="2653.73" rx="0.452189" ry="0.383456" fill="#C4C4C4"/>
<ellipse cx="217.947" cy="2739.35" rx="0.904378" ry="0.767878" fill="#C4C4C4"/>
<ellipse cx="145.144" cy="2704.41" rx="0.452189" ry="0.383456" fill="#C4C4C4"/>
<ellipse cx="162.328" cy="2362.7" rx="0.452189" ry="0.383456" fill="#C4C4C4"/>
<ellipse cx="1089.32" cy="2562.35" rx="0.452189" ry="0.383456" fill="#C4C4C4"/>
<ellipse cx="1054.5" cy="2590.38" rx="0.904378" ry="0.767878" fill="#C4C4C4"/>
<ellipse cx="1045.9" cy="2555.44" rx="0.452189" ry="0.383456" fill="#C4C4C4"/>
<ellipse cx="985.312" cy="2437.19" rx="0.452189" ry="0.383456" fill="#C4C4C4"/>
<ellipse cx="899.396" cy="2435.65" rx="0.452189" ry="0.383456" fill="#C4C4C4"/>
<ellipse cx="890.352" cy="2405.7" rx="0.452189" ry="0.383456" fill="#C4C4C4"/>
<ellipse cx="886.734" cy="2430.27" rx="0.452189" ry="0.383456" fill="#C4C4C4"/>
<ellipse cx="805.34" cy="2511.67" rx="0.452189" ry="0.383456" fill="#C4C4C4"/>
<ellipse cx="807.149" cy="2572.33" rx="0.452189" ry="0.383456" fill="#C4C4C4"/>
<ellipse cx="955.015" cy="2617.25" rx="0.904378" ry="0.767878" fill="#C4C4C4"/>
<ellipse cx="945.971" cy="2587.31" rx="0.904378" ry="0.767878" fill="#C4C4C4"/>
<ellipse cx="996.164" cy="2599.98" rx="0.452189" ry="0.383456" fill="#C4C4C4"/>
<ellipse cx="231.965" cy="2543.15" rx="0.452189" ry="0.383456" fill="#C4C4C4"/>
<ellipse cx="120.726" cy="2518.58" rx="0.452189" ry="0.383456" fill="#C4C4C4"/>
<ellipse cx="114.396" cy="2467.9" rx="0.452189" ry="0.383456" fill="#C4C4C4"/>
<ellipse cx="1330.78" cy="3344.82" rx="0.452189" ry="0.383456" fill="#C4C4C4"/>
<ellipse cx="565.68" cy="2474.04" rx="0.452189" ry="0.383456" fill="#C4C4C4"/>
<ellipse cx="732.086" cy="2691.35" rx="0.452189" ry="0.383456" fill="#C4C4C4"/>
<ellipse cx="809.862" cy="2758.16" rx="0.452189" ry="0.383456" fill="#C4C4C4"/>
<ellipse cx="1177.94" cy="2700.57" rx="0.452189" ry="0.383456" fill="#C4C4C4"/>
<ellipse cx="853.273" cy="2589.99" rx="0.452189" ry="0.383456" fill="#C4C4C4"/>
<ellipse cx="742.034" cy="2565.42" rx="0.452189" ry="0.383456" fill="#C4C4C4"/>
<ellipse cx="735.703" cy="2514.74" rx="0.452189" ry="0.383456" fill="#C4C4C4"/>
<ellipse cx="656.118" cy="2563.89" rx="0.452189" ry="0.383456" fill="#C4C4C4"/>
<ellipse cx="643.457" cy="2558.51" rx="0.452189" ry="0.383456" fill="#C4C4C4"/>
<ellipse cx="477.051" cy="2533.17" rx="0.452189" ry="0.383456" fill="#C4C4C4"/>
<ellipse cx="665.614" cy="2673.31" rx="0.904378" ry="0.767878" fill="#C4C4C4"/>
<ellipse cx="1364.7" cy="3141.71" rx="0.904378" ry="0.767878" fill="#C4C4C4"/>
<ellipse cx="51.5415" cy="2840.71" rx="0.904378" ry="0.767878" fill="#C4C4C4"/>
<ellipse cx="1161.67" cy="2825.73" rx="0.452189" ry="0.383456" fill="#C4C4C4"/>
<ellipse cx="1163.47" cy="2886.39" rx="0.452189" ry="0.383456" fill="#C4C4C4"/>
<ellipse cx="1277.88" cy="2887.55" rx="0.904378" ry="0.767878" fill="#C4C4C4"/>
<ellipse cx="1044.55" cy="2849.92" rx="0.904378" ry="0.767878" fill="#C4C4C4"/>
<ellipse cx="1079.82" cy="2834.56" rx="0.904378" ry="0.767878" fill="#C4C4C4"/>
<ellipse cx="517.296" cy="2211.81" rx="0.904378" ry="0.767878" fill="#C4C4C4"/>
<ellipse cx="508.252" cy="2181.87" rx="0.904378" ry="0.767878" fill="#C4C4C4"/>
<ellipse cx="638.935" cy="2378.06" rx="0.452189" ry="0.383456" fill="#C4C4C4"/>
<ellipse cx="566.585" cy="2164.59" rx="0.452189" ry="0.383456" fill="#C4C4C4"/>
<ellipse cx="568.394" cy="2297.43" rx="0.452189" ry="0.383456" fill="#C4C4C4"/>
<ellipse cx="558.445" cy="2125.43" rx="0.452189" ry="0.383456" fill="#C4C4C4"/>
<ellipse cx="689.128" cy="2205.67" rx="0.904378" ry="0.767878" fill="#C4C4C4"/>
<ellipse cx="760.574" cy="2323.16" rx="0.904378" ry="0.767878" fill="#C4C4C4"/>
<ellipse cx="1049.07" cy="2761.61" rx="0.904378" ry="0.767878" fill="#C4C4C4"/>
<ellipse cx="1289.18" cy="2998.5" rx="0.452189" ry="0.383456" fill="#C4C4C4"/>
<ellipse cx="1169.35" cy="2723.22" rx="0.904378" ry="0.767878" fill="#C4C4C4"/>
<ellipse cx="1252.1" cy="2944.75" rx="0.452189" ry="0.383456" fill="#C4C4C4"/>
<ellipse cx="1125.94" cy="2716.31" rx="0.904378" ry="0.767878" fill="#C4C4C4"/>
<ellipse cx="1337.57" cy="2763.15" rx="0.904378" ry="0.767878" fill="#C4C4C4"/>
<ellipse cx="345.917" cy="2061.69" rx="0.452189" ry="0.383456" fill="#C4C4C4"/>
<ellipse cx="264.07" cy="2070.52" rx="0.904378" ry="0.767878" fill="#C4C4C4"/>
<ellipse cx="974.459" cy="2282.07" rx="0.452189" ry="0.383456" fill="#C4C4C4"/>
<ellipse cx="1004.3" cy="2146.93" rx="0.452189" ry="0.383456" fill="#C4C4C4"/>
<ellipse cx="898.039" cy="2139.63" rx="0.904378" ry="0.767878" fill="#C4C4C4"/>
<ellipse cx="932.406" cy="2214.12" rx="0.904378" ry="0.767878" fill="#C4C4C4"/>
<ellipse cx="1178.4" cy="2132.72" rx="0.904378" ry="0.767878" fill="#C4C4C4"/>
<ellipse cx="1149.46" cy="2119.67" rx="0.904378" ry="0.767878" fill="#C4C4C4"/>
<ellipse cx="1062.64" cy="2105.08" rx="0.904378" ry="0.767878" fill="#C4C4C4"/>
<ellipse cx="1168" cy="2295.13" rx="0.452189" ry="0.383456" fill="#C4C4C4"/>
</g>
<g clip-path="url(#clip2_229_10)">
<rect width="1440" height="1241" transform="translate(0 805)" fill="url(#paint0_linear_229_10)"/>
<g opacity="0.4">
<path d="M-38.3128 1539C12.4321 1528.62 45.0235 1479.69 34.482 1429.72C23.9406 1379.75 -25.7418 1347.66 -76.4868 1358.04C-127.232 1368.42 -159.823 1417.34 -149.282 1467.32C-138.74 1517.29 -89.0578 1549.38 -38.3128 1539Z" stroke="url(#paint1_linear_229_10)" stroke-miterlimit="10"/>
<path d="M-129.973 1557.47C-68.8893 1596.93 13.1119 1580.15 53.1822 1520C93.2525 1459.85 76.2181 1379.1 15.1348 1339.64C-45.9485 1300.18 -127.95 1316.95 -168.02 1377.1C-208.09 1437.26 -191.056 1518.01 -129.973 1557.47Z" stroke="url(#paint2_linear_229_10)" stroke-miterlimit="10"/>
<path d="M-20.4891 1623.49C77.6424 1603.42 140.668 1508.81 120.283 1412.17C99.8977 1315.54 3.82094 1253.47 -94.3105 1273.54C-192.442 1293.62 -255.468 1388.23 -235.082 1484.87C-214.697 1581.5 -118.62 1643.57 -20.4891 1623.49Z" stroke="url(#paint3_linear_229_10)" stroke-miterlimit="10"/>
<path d="M-10.8963 1668.97C112.739 1643.68 192.144 1524.48 166.461 1402.72C140.778 1280.97 19.7318 1202.78 -103.903 1228.07C-227.538 1253.36 -306.944 1372.56 -281.261 1494.31C-255.578 1616.06 -134.531 1694.26 -10.8963 1668.97Z" stroke="url(#paint4_linear_229_10)" stroke-miterlimit="10"/>
<path d="M-221.636 1695.07C-83.3808 1784.38 102.22 1746.42 192.915 1610.27C283.609 1474.12 245.054 1291.35 106.798 1202.03C-31.457 1112.72 -217.058 1150.69 -307.752 1286.84C-398.447 1422.99 -359.892 1605.76 -221.636 1695.07Z" stroke="url(#paint5_linear_229_10)" stroke-miterlimit="10"/>
<path d="M-279.817 1782.41C-92.5787 1903.37 158.779 1851.95 281.607 1667.56C404.434 1483.18 352.218 1235.65 164.98 1114.69C-22.2586 993.739 -273.617 1045.16 -396.444 1229.54C-519.271 1413.93 -467.056 1661.45 -279.817 1782.41Z" stroke="url(#paint6_linear_229_10)" stroke-miterlimit="10"/>
<path d="M-327.938 1854.65C-100.187 2001.77 205.558 1939.23 354.962 1714.95C504.366 1490.67 440.852 1189.58 213.101 1042.46C-14.6511 895.33 -320.396 957.875 -469.8 1182.16C-619.203 1406.44 -555.69 1707.52 -327.938 1854.65Z" stroke="url(#paint7_linear_229_10)" stroke-miterlimit="10"/>
<path d="M-359.664 1902.27C-105.202 2066.65 236.4 1996.77 403.325 1746.19C570.25 1495.61 499.288 1159.21 244.826 994.832C-9.63536 830.45 -351.237 900.331 -518.162 1150.91C-685.087 1401.5 -614.125 1737.89 -359.664 1902.27Z" stroke="url(#paint8_linear_229_10)" stroke-miterlimit="10"/>
<path d="M-381.357 1934.66C-108.7 2110.8 257.327 2035.92 436.188 1767.42C615.05 1498.92 539.013 1138.47 266.357 962.336C-6.29984 786.201 -372.327 861.078 -551.188 1129.58C-730.049 1398.08 -654.013 1758.53 -381.357 1934.66Z" stroke="url(#paint9_linear_229_10)" stroke-miterlimit="10"/>
</g>
<ellipse cx="45.5995" cy="2040.88" rx="0.464243" ry="0.383456" fill="#C4C4C4"/>
<ellipse cx="76.2234" cy="1905.74" rx="0.464243" ry="0.383456" fill="#C4C4C4"/>
<ellipse cx="104.063" cy="1752.93" rx="0.464243" ry="0.383456" fill="#C4C4C4"/>
<ellipse cx="211.711" cy="1932.61" rx="0.464243" ry="0.383456" fill="#C4C4C4"/>
<ellipse cx="2.44753" cy="1972.93" rx="0.927995" ry="0.767878" fill="#C4C4C4"/>
<ellipse cx="263.678" cy="1831.25" rx="0.464243" ry="0.383456" fill="#C4C4C4"/>
<ellipse cx="53.0236" cy="1842" rx="0.464243" ry="0.383456" fill="#C4C4C4"/>
<ellipse cx="214.495" cy="1904.2" rx="0.464243" ry="0.383456" fill="#C4C4C4"/>
<ellipse cx="105.919" cy="1813.59" rx="0.464243" ry="0.383456" fill="#C4C4C4"/>
<ellipse cx="129.119" cy="1869.65" rx="0.464243" ry="0.383456" fill="#C4C4C4"/>
<ellipse cx="1022.31" cy="1938.37" rx="0.927995" ry="0.767878" fill="#C4C4C4"/>
<ellipse cx="1013.03" cy="1908.42" rx="0.927995" ry="0.767878" fill="#C4C4C4"/>
<ellipse cx="223.31" cy="1814.74" rx="0.927995" ry="0.767878" fill="#C4C4C4"/>
<ellipse cx="654.828" cy="1652.72" rx="0.927995" ry="0.767878" fill="#C4C4C4"/>
<ellipse cx="254.862" cy="1891.53" rx="0.927995" ry="0.767878" fill="#C4C4C4"/>
<ellipse cx="225.166" cy="1878.48" rx="0.927995" ry="0.767878" fill="#C4C4C4"/>
<ellipse cx="747.628" cy="1622.77" rx="0.927995" ry="0.767878" fill="#C4C4C4"/>
<ellipse cx="136.079" cy="1863.89" rx="0.927995" ry="0.767878" fill="#C4C4C4"/>
<ellipse cx="581.516" cy="1780.96" rx="0.927995" ry="0.767878" fill="#C4C4C4"/>
<ellipse cx="669.212" cy="1629.3" rx="0.464243" ry="0.383456" fill="#C4C4C4"/>
<ellipse cx="765.724" cy="1660.78" rx="0.464243" ry="0.383456" fill="#C4C4C4"/>
<ellipse cx="1117.43" cy="1654.64" rx="0.464243" ry="0.383456" fill="#C4C4C4"/>
<ellipse cx="115.199" cy="1994.04" rx="0.464243" ry="0.383456" fill="#C4C4C4"/>
<ellipse cx="1072.89" cy="1891.15" rx="0.464243" ry="0.383456" fill="#C4C4C4"/>
<ellipse cx="555.069" cy="1713" rx="0.464243" ry="0.383456" fill="#C4C4C4"/>
<ellipse cx="1074.75" cy="2023.99" rx="0.464243" ry="0.383456" fill="#C4C4C4"/>
<ellipse cx="602.397" cy="1683.82" rx="0.464243" ry="0.383456" fill="#C4C4C4"/>
<ellipse cx="595.901" cy="1633.14" rx="0.464243" ry="0.383456" fill="#C4C4C4"/>
<ellipse cx="320.75" cy="1942.98" rx="0.927995" ry="0.767878" fill="#C4C4C4"/>
<ellipse cx="214.495" cy="2026.29" rx="0.464243" ry="0.383456" fill="#C4C4C4"/>
<ellipse cx="566.205" cy="1636.98" rx="0.464243" ry="0.383456" fill="#C4C4C4"/>
<ellipse cx="536.509" cy="1623.92" rx="0.464243" ry="0.383456" fill="#C4C4C4"/>
<ellipse cx="338.846" cy="1654.64" rx="0.464243" ry="0.383456" fill="#C4C4C4"/>
<ellipse cx="329.566" cy="1624.69" rx="0.464243" ry="0.383456" fill="#C4C4C4"/>
<ellipse cx="244.19" cy="1639.28" rx="0.464243" ry="0.383456" fill="#C4C4C4"/>
<ellipse cx="325.854" cy="1649.26" rx="0.464243" ry="0.383456" fill="#C4C4C4"/>
<ellipse cx="1249.67" cy="1631.22" rx="0.927995" ry="0.767878" fill="#C4C4C4"/>
<ellipse cx="1064.54" cy="1851.98" rx="0.464243" ry="0.383456" fill="#C4C4C4"/>
<ellipse cx="154.639" cy="1046.87" rx="0.927995" ry="0.767878" fill="#C4C4C4"/>
<ellipse cx="145.359" cy="1016.92" rx="0.927995" ry="0.767878" fill="#C4C4C4"/>
<ellipse cx="91.0712" cy="1203.9" rx="0.464243" ry="0.383456" fill="#C4C4C4"/>
<ellipse cx="199.647" cy="1233.07" rx="0.464243" ry="0.383456" fill="#C4C4C4"/>
<ellipse cx="279.454" cy="1213.11" rx="0.464243" ry="0.383456" fill="#C4C4C4"/>
<ellipse cx="229.806" cy="1261.1" rx="0.927995" ry="0.767878" fill="#C4C4C4"/>
<ellipse cx="155.103" cy="1226.16" rx="0.464243" ry="0.383456" fill="#C4C4C4"/>
<ellipse cx="205.215" cy="999.64" rx="0.464243" ry="0.383456" fill="#C4C4C4"/>
<ellipse cx="207.071" cy="1132.48" rx="0.464243" ry="0.383456" fill="#C4C4C4"/>
<ellipse cx="92.9274" cy="1107.91" rx="0.464243" ry="0.383456" fill="#C4C4C4"/>
<ellipse cx="86.4313" cy="1057.23" rx="0.464243" ry="0.383456" fill="#C4C4C4"/>
<ellipse cx="86.4313" cy="958.942" rx="0.464243" ry="0.383456" fill="#C4C4C4"/>
<ellipse cx="196.863" cy="960.478" rx="0.464243" ry="0.383456" fill="#C4C4C4"/>
<ellipse cx="1251.07" cy="1796.7" rx="0.464243" ry="0.383456" fill="#C4C4C4"/>
<ellipse cx="1130.89" cy="1709.54" rx="0.927995" ry="0.767878" fill="#C4C4C4"/>
<ellipse cx="263.678" cy="1763.68" rx="0.464243" ry="0.383456" fill="#C4C4C4"/>
<ellipse cx="300.334" cy="1748.71" rx="0.927995" ry="0.767878" fill="#C4C4C4"/>
<ellipse cx="270.174" cy="1735.27" rx="0.464243" ry="0.383456" fill="#C4C4C4"/>
<ellipse cx="457.165" cy="1730.28" rx="0.927995" ry="0.767878" fill="#C4C4C4"/>
<ellipse cx="559.245" cy="1659.63" rx="0.927995" ry="0.767878" fill="#C4C4C4"/>
<ellipse cx="85.0391" cy="1622.01" rx="0.927995" ry="0.767878" fill="#C4C4C4"/>
<ellipse cx="1423.67" cy="1949.51" rx="0.464243" ry="0.383456" fill="#C4C4C4"/>
<ellipse cx="20.0796" cy="1761.76" rx="0.927995" ry="0.767878" fill="#C4C4C4"/>
<ellipse cx="1421.82" cy="2040.88" rx="0.464243" ry="0.383456" fill="#C4C4C4"/>
<ellipse cx="61.8394" cy="1287.98" rx="0.927995" ry="0.767878" fill="#C4C4C4"/>
<ellipse cx="52.5592" cy="1258.03" rx="0.927995" ry="0.767878" fill="#C4C4C4"/>
<ellipse cx="51.1676" cy="1552.51" rx="0.464243" ry="0.383456" fill="#C4C4C4"/>
<ellipse cx="130.975" cy="1619.32" rx="0.464243" ry="0.383456" fill="#C4C4C4"/>
<ellipse cx="239.551" cy="1561.73" rx="0.464243" ry="0.383456" fill="#C4C4C4"/>
<ellipse cx="161.135" cy="1647.35" rx="0.927995" ry="0.767878" fill="#C4C4C4"/>
<ellipse cx="86.4313" cy="1612.41" rx="0.464243" ry="0.383456" fill="#C4C4C4"/>
<ellipse cx="104.063" cy="1270.7" rx="0.464243" ry="0.383456" fill="#C4C4C4"/>
<ellipse cx="1055.26" cy="1470.35" rx="0.464243" ry="0.383456" fill="#C4C4C4"/>
<ellipse cx="1019.53" cy="1498.38" rx="0.927995" ry="0.767878" fill="#C4C4C4"/>
<ellipse cx="1010.71" cy="1463.44" rx="0.464243" ry="0.383456" fill="#C4C4C4"/>
<ellipse cx="948.539" cy="1345.19" rx="0.464243" ry="0.383456" fill="#C4C4C4"/>
<ellipse cx="860.379" cy="1343.65" rx="0.464243" ry="0.383456" fill="#C4C4C4"/>
<ellipse cx="851.099" cy="1313.7" rx="0.464243" ry="0.383456" fill="#C4C4C4"/>
<ellipse cx="847.387" cy="1338.27" rx="0.464243" ry="0.383456" fill="#C4C4C4"/>
<ellipse cx="763.868" cy="1419.67" rx="0.464243" ry="0.383456" fill="#C4C4C4"/>
<ellipse cx="765.724" cy="1480.33" rx="0.464243" ry="0.383456" fill="#C4C4C4"/>
<ellipse cx="917.451" cy="1525.25" rx="0.927995" ry="0.767878" fill="#C4C4C4"/>
<ellipse cx="908.171" cy="1495.31" rx="0.927995" ry="0.767878" fill="#C4C4C4"/>
<ellipse cx="959.675" cy="1507.98" rx="0.464243" ry="0.383456" fill="#C4C4C4"/>
<ellipse cx="175.519" cy="1451.15" rx="0.464243" ry="0.383456" fill="#C4C4C4"/>
<ellipse cx="61.3756" cy="1426.58" rx="0.464243" ry="0.383456" fill="#C4C4C4"/>
<ellipse cx="54.8794" cy="1375.9" rx="0.464243" ry="0.383456" fill="#C4C4C4"/>
<ellipse cx="517.949" cy="1382.04" rx="0.464243" ry="0.383456" fill="#C4C4C4"/>
<ellipse cx="688.7" cy="1599.35" rx="0.464243" ry="0.383456" fill="#C4C4C4"/>
<ellipse cx="768.508" cy="1666.16" rx="0.464243" ry="0.383456" fill="#C4C4C4"/>
<ellipse cx="1146.2" cy="1608.57" rx="0.464243" ry="0.383456" fill="#C4C4C4"/>
<ellipse cx="813.052" cy="1497.99" rx="0.464243" ry="0.383456" fill="#C4C4C4"/>
<ellipse cx="698.908" cy="1473.42" rx="0.464243" ry="0.383456" fill="#C4C4C4"/>
<ellipse cx="692.412" cy="1422.74" rx="0.464243" ry="0.383456" fill="#C4C4C4"/>
<ellipse cx="610.749" cy="1471.89" rx="0.464243" ry="0.383456" fill="#C4C4C4"/>
<ellipse cx="597.757" cy="1466.51" rx="0.464243" ry="0.383456" fill="#C4C4C4"/>
<ellipse cx="427.006" cy="1441.17" rx="0.464243" ry="0.383456" fill="#C4C4C4"/>
<ellipse cx="620.492" cy="1581.31" rx="0.927995" ry="0.767878" fill="#C4C4C4"/>
<ellipse cx="1129.5" cy="1733.73" rx="0.464243" ry="0.383456" fill="#C4C4C4"/>
<ellipse cx="1131.35" cy="1794.39" rx="0.464243" ry="0.383456" fill="#C4C4C4"/>
<ellipse cx="1248.74" cy="1795.55" rx="0.927995" ry="0.767878" fill="#C4C4C4"/>
<ellipse cx="21.9354" cy="876.397" rx="0.927995" ry="0.767878" fill="#C4C4C4"/>
<ellipse cx="1009.32" cy="1757.92" rx="0.927995" ry="0.767878" fill="#C4C4C4"/>
<ellipse cx="1045.51" cy="1742.56" rx="0.927995" ry="0.767878" fill="#C4C4C4"/>
<ellipse cx="468.301" cy="1119.81" rx="0.927995" ry="0.767878" fill="#C4C4C4"/>
<ellipse cx="459.021" cy="1089.87" rx="0.927995" ry="0.767878" fill="#C4C4C4"/>
<ellipse cx="593.117" cy="1286.06" rx="0.464243" ry="0.383456" fill="#C4C4C4"/>
<ellipse cx="518.877" cy="1072.59" rx="0.464243" ry="0.383456" fill="#C4C4C4"/>
<ellipse cx="520.733" cy="1205.43" rx="0.464243" ry="0.383456" fill="#C4C4C4"/>
<ellipse cx="510.525" cy="1033.43" rx="0.464243" ry="0.383456" fill="#C4C4C4"/>
<ellipse cx="644.62" cy="1113.67" rx="0.927995" ry="0.767878" fill="#C4C4C4"/>
<ellipse cx="717.932" cy="1231.16" rx="0.927995" ry="0.767878" fill="#C4C4C4"/>
<ellipse cx="455.309" cy="939.363" rx="0.927995" ry="0.767878" fill="#C4C4C4"/>
<ellipse cx="491.501" cy="924.005" rx="0.927995" ry="0.767878" fill="#C4C4C4"/>
<ellipse cx="1013.96" cy="1669.61" rx="0.927995" ry="0.767878" fill="#C4C4C4"/>
<ellipse cx="1260.35" cy="1906.5" rx="0.464243" ry="0.383456" fill="#C4C4C4"/>
<ellipse cx="1137.39" cy="1631.22" rx="0.927995" ry="0.767878" fill="#C4C4C4"/>
<ellipse cx="1436.66" cy="1908.04" rx="0.464243" ry="0.383456" fill="#C4C4C4"/>
<ellipse cx="1222.3" cy="1852.75" rx="0.464243" ry="0.383456" fill="#C4C4C4"/>
<ellipse cx="1092.84" cy="1624.31" rx="0.927995" ry="0.767878" fill="#C4C4C4"/>
<ellipse cx="1309.99" cy="1671.15" rx="0.927995" ry="0.767878" fill="#C4C4C4"/>
<ellipse cx="470.621" cy="844.528" rx="0.464243" ry="0.383456" fill="#C4C4C4"/>
<ellipse cx="388.958" cy="893.673" rx="0.464243" ry="0.383456" fill="#C4C4C4"/>
<ellipse cx="294.302" cy="878.316" rx="0.464243" ry="0.383456" fill="#C4C4C4"/>
<ellipse cx="375.966" cy="888.298" rx="0.464243" ry="0.383456" fill="#C4C4C4"/>
<ellipse cx="292.446" cy="969.693" rx="0.464243" ry="0.383456" fill="#C4C4C4"/>
<ellipse cx="208.462" cy="978.525" rx="0.927995" ry="0.767878" fill="#C4C4C4"/>
<ellipse cx="307.294" cy="836.85" rx="0.464243" ry="0.383456" fill="#C4C4C4"/>
<ellipse cx="937.403" cy="1190.07" rx="0.464243" ry="0.383456" fill="#C4C4C4"/>
<ellipse cx="968.027" cy="1054.93" rx="0.464243" ry="0.383456" fill="#C4C4C4"/>
<ellipse cx="858.987" cy="1047.63" rx="0.927995" ry="0.767878" fill="#C4C4C4"/>
<ellipse cx="894.251" cy="1122.12" rx="0.927995" ry="0.767878" fill="#C4C4C4"/>
<ellipse cx="1146.67" cy="1040.72" rx="0.927995" ry="0.767878" fill="#C4C4C4"/>
<ellipse cx="1116.97" cy="1027.67" rx="0.927995" ry="0.767878" fill="#C4C4C4"/>
<ellipse cx="1027.88" cy="1013.08" rx="0.927995" ry="0.767878" fill="#C4C4C4"/>
<ellipse cx="1135.99" cy="1203.13" rx="0.464243" ry="0.383456" fill="#C4C4C4"/>
<ellipse cx="911.883" cy="910.95" rx="0.927995" ry="0.767878" fill="#C4C4C4"/>
</g>
</g>
<defs>
<linearGradient id="paint0_linear_229_10" x1="720" y1="0" x2="720" y2="1241" gradientUnits="userSpaceOnUse">
<stop stop-color="#040327"/>
<stop offset="0.24495" stop-color="#0D0E13"/>
</linearGradient>
<linearGradient id="paint1_linear_229_10" x1="471.896" y1="1897.52" x2="-158.134" y2="1409" gradientUnits="userSpaceOnUse">
<stop stop-color="#F9BDB1" stop-opacity="0.24"/>
<stop offset="1" stop-color="#040327"/>
</linearGradient>
<linearGradient id="paint2_linear_229_10" x1="471.896" y1="1897.52" x2="-158.134" y2="1409" gradientUnits="userSpaceOnUse">
<stop stop-color="#F9BDB1" stop-opacity="0.24"/>
<stop offset="1" stop-color="#040327"/>
</linearGradient>
<linearGradient id="paint3_linear_229_10" x1="471.896" y1="1897.52" x2="-158.134" y2="1409" gradientUnits="userSpaceOnUse">
<stop stop-color="#F9BDB1" stop-opacity="0.24"/>
<stop offset="1" stop-color="#040327"/>
</linearGradient>
<linearGradient id="paint4_linear_229_10" x1="471.896" y1="1897.52" x2="-158.134" y2="1409" gradientUnits="userSpaceOnUse">
<stop stop-color="#F9BDB1" stop-opacity="0.24"/>
<stop offset="1" stop-color="#040327"/>
</linearGradient>
<linearGradient id="paint5_linear_229_10" x1="471.896" y1="1897.52" x2="-158.134" y2="1409" gradientUnits="userSpaceOnUse">
<stop stop-color="#F9BDB1" stop-opacity="0.24"/>
<stop offset="1" stop-color="#040327"/>
</linearGradient>
<linearGradient id="paint6_linear_229_10" x1="471.896" y1="1897.52" x2="-158.134" y2="1409" gradientUnits="userSpaceOnUse">
<stop stop-color="#F9BDB1" stop-opacity="0.24"/>
<stop offset="1" stop-color="#040327"/>
</linearGradient>
<linearGradient id="paint7_linear_229_10" x1="471.896" y1="1897.52" x2="-158.134" y2="1409" gradientUnits="userSpaceOnUse">
<stop stop-color="#F9BDB1" stop-opacity="0.24"/>
<stop offset="1" stop-color="#040327"/>
</linearGradient>
<linearGradient id="paint8_linear_229_10" x1="471.896" y1="1897.52" x2="-158.134" y2="1409" gradientUnits="userSpaceOnUse">
<stop stop-color="#F9BDB1" stop-opacity="0.24"/>
<stop offset="1" stop-color="#040327"/>
</linearGradient>
<linearGradient id="paint9_linear_229_10" x1="471.896" y1="1897.52" x2="-158.134" y2="1409" gradientUnits="userSpaceOnUse">
<stop stop-color="#F9BDB1" stop-opacity="0.24"/>
<stop offset="1" stop-color="#040327"/>
</linearGradient>
<clipPath id="clip0_229_10">
<rect width="1440" height="3529" fill="white"/>
</clipPath>
<clipPath id="clip1_229_10">
<rect width="1452" height="1347" fill="white" transform="translate(-12 2046)"/>
</clipPath>
<clipPath id="clip2_229_10">
<rect width="1440" height="1241" fill="white" transform="translate(0 805)"/>
</clipPath>
</defs>
</svg>
