<svg width="1393" height="221" viewBox="0 0 1393 221" fill="none" xmlns="http://www.w3.org/2000/svg">
<path d="M103.916 34.8476C95.6229 15.5149 87.6552 8.06985 64.4542 3.98805H0V221H1393V3.98805H1304.87C1277.29 7.42915 1263.69 11.4948 1253.57 34.8476C1212.79 27.879 1193.06 34.8476 1173.33 52.766C1122.03 24.8926 1052.31 23.8971 1011.54 64.7117C966.813 3.98716 849.743 -25.8764 751.089 34.8476C697.158 3.98806 639.28 9.96053 597.188 34.8476C524.841 -17.9126 414.348 -12.9345 349.894 64.7117C305.171 27.8798 235.455 24.8934 188.101 52.766C164.424 34.8476 135.485 29.8707 103.916 34.8476Z" fill="url(#paint0_radial_229_439)"/>
<defs>
<radialGradient id="paint0_radial_229_439" cx="0" cy="0" r="1" gradientUnits="userSpaceOnUse" gradientTransform="translate(681.373 55.7463) rotate(90) scale(165.248 637.611)">
<stop stop-color="#F0A795"/>
<stop offset="1" stop-color="#FF8C70" stop-opacity="0"/>
</radialGradient>
</defs>
</svg>
